<svg width="30" height="30" viewBox="0 0 30 30" fill="none" xmlns="http://www.w3.org/2000/svg">
<path fill-rule="evenodd" clip-rule="evenodd" d="M9.54131 4C9.215 4 8.90921 4.15921 8.72208 4.42654L6.92066 7H23.0793L21.2779 4.42654C21.0908 4.15921 20.785 4 20.4587 4H9.54131ZM24 9H6V24C6 24.5523 6.44772 25 7 25H23C23.5523 25 24 24.5523 24 24V9ZM7.08361 3.27961C7.645 2.47763 8.56237 2 9.54131 2H20.4587C21.4376 2 22.355 2.47763 22.9164 3.27961L26 7.68478V24C26 25.6569 24.6569 27 23 27H7C5.34315 27 4 25.6569 4 24V7.68478L7.08361 3.27961Z" fill="black"/>
</svg>
