<svg width="30" height="30" viewBox="0 0 30 30" fill="none" xmlns="http://www.w3.org/2000/svg">
<path fill-rule="evenodd" clip-rule="evenodd" d="M11.6375 4.32996C7.60167 4.32996 4.32996 7.60167 4.32996 11.6375C4.32996 15.6734 7.60167 18.9451 11.6375 18.9451C15.6734 18.9451 18.9451 15.6734 18.9451 11.6375C18.9451 7.60167 15.6734 4.32996 11.6375 4.32996ZM2 11.6375C2 6.31488 6.31488 2 11.6375 2C16.9602 2 21.2751 6.31488 21.2751 11.6375C21.2751 16.9602 16.9602 21.2751 11.6375 21.2751C6.31488 21.2751 2 16.9602 2 11.6375Z" fill="black"/>
<path fill-rule="evenodd" clip-rule="evenodd" d="M17.6978 16.6386C18.1527 16.1837 18.8904 16.1837 19.3453 16.6386L27.8179 25.1112C28.2728 25.5662 28.2728 26.3038 27.8179 26.7587C27.3629 27.2137 26.6253 27.2137 26.1703 26.7587L17.6978 18.2862C17.2428 17.8312 17.2428 17.0936 17.6978 16.6386Z" fill="black"/>
</svg>
